<svg id="Layer_1" data-name="Layer 1" xmlns="http://www.w3.org/2000/svg" viewBox="0 0 114.72 35.86"><defs><style>.cls-1{fill:#35a8e0;}.cls-2,.cls-3{fill:#fff;}.cls-3{font-size:19.87px;font-family:CourierNewPS-BoldMT, Courier New;font-weight:700;}</style></defs><title>codegen artwork</title><path class="cls-1" d="M28.27,2.42a5,5,0,0,1,1.25,3.36c0,2.81,0,5.62,0,8.43a5.25,5.25,0,0,1-5.27,5.21H16a5.24,5.24,0,0,1-5.29-5.33V5.91A5.22,5.22,0,0,1,16,.58h8.23A5.44,5.44,0,0,1,28.27,2.42ZM13.83,3.8a2.88,2.88,0,0,0-.81,2c0,2.77,0,5.55,0,8.32A2.85,2.85,0,0,0,16,17.07h8.28a2.87,2.87,0,0,0,2.93-2.88c0-2.8,0-5.61,0-8.42a2.86,2.86,0,0,0-2.85-2.86c-2.82,0-5.65,0-8.47,0A2.82,2.82,0,0,0,13.83,3.8Z"/><path class="cls-2" d="M39.63,13.39v3.8a.51.51,0,0,1-.37.48l-.41.09c-2.23.34-3,1-3.22,3-.23,1.9-.2,3.82-.44,5.72a7.2,7.2,0,0,1-.37,1.58c-.58,1.52-1.75,2.2-3.94,2.42a15.74,15.74,0,0,1-1.95.08.49.49,0,0,1-.49-.5v-1.5a.5.5,0,0,1,.5-.5h0a4,4,0,0,0,1.2,0,2.87,2.87,0,0,0,2.42-2.9c.06-1.15.07-2.31.12-3.46.12-2.56,1-4.7,3.49-5.92a.5.5,0,0,0,0-.9c-2.52-1.16-3.4-3.22-3.48-5.77,0-1-.1-2.09-.12-3.13,0-2.5-.76-3.3-3.37-3.7l-.2,0a.5.5,0,0,1-.42-.49V.59A.5.5,0,0,1,29,.1c3.59-.53,5.93,1.12,6.27,4.5.12,1.14,0,2.3.07,3.46.07,3.17.71,4,3.91,4.85A.51.51,0,0,1,39.63,13.39Z"/><path class="cls-2" d="M0,13.39v3.8a.5.5,0,0,0,.37.48l.41.09c2.23.34,3,1,3.22,3,.23,1.9.2,3.82.44,5.72a7.2,7.2,0,0,0,.37,1.58c.58,1.52,1.75,2.2,3.94,2.42a15.74,15.74,0,0,0,1.95.08.49.49,0,0,0,.49-.5v-1.5a.5.5,0,0,0-.5-.5h0a4,4,0,0,1-1.2,0,2.87,2.87,0,0,1-2.42-2.9C7,24,7,22.88,6.94,21.73,6.83,19.17,6,17,3.46,15.81a.5.5,0,0,1,0-.9C6,13.75,6.86,11.69,7,9.14c0-1,.1-2.09.12-3.13,0-2.5.76-3.3,3.37-3.7l.2,0a.49.49,0,0,0,.41-.49V.59A.49.49,0,0,0,10.63.1C7-.43,4.7,1.22,4.36,4.6c-.12,1.14,0,2.3-.07,3.46-.07,3.17-.71,4-3.91,4.85A.51.51,0,0,0,0,13.39Z"/><path class="cls-1" d="M24.72,21a2.77,2.77,0,0,1,.7,1.9c0,1.59,0,3.17,0,4.76a3,3,0,0,1-3,2.95H17.77a3,3,0,0,1-3-3V23a3,3,0,0,1,3-3h4.65A3.08,3.08,0,0,1,24.72,21Zm-8.16.78a1.61,1.61,0,0,0-.46,1.15c0,1.57,0,3.14,0,4.71a1.61,1.61,0,0,0,1.66,1.64h4.67a1.62,1.62,0,0,0,1.66-1.62c0-1.59,0-3.17,0-4.76a1.61,1.61,0,0,0-1.61-1.62c-1.59,0-3.19,0-4.78,0A1.62,1.62,0,0,0,16.56,21.76Z"/><text class="cls-3" transform="translate(49.49 21.75) scale(0.78 1)">Code<tspan class="cls-1" x="47.68" y="0">Gen</tspan></text></svg>